<?xml version="1.0" encoding="UTF-8"?>
<svg version="1.1" xmlns="http://www.w3.org/2000/svg" width="96" height="96">
<path d="M0 0 C31.68 0 63.36 0 96 0 C96 31.68 96 63.36 96 96 C64.32 96 32.64 96 0 96 C0 64.32 0 32.64 0 0 Z " fill="#FAFAFC" transform="translate(0,0)"/>
<path d="M0 0 C0.33 0 0.66 0 1 0 C1 17.82 1 35.64 1 54 C-30.68 54 -62.36 54 -95 54 C-95 48.72 -95 43.44 -95 38 C-87.74 38 -80.48 38 -73 38 C-72.67 36.35 -72.34 34.7 -72 33 C-70.80533913 29.39386095 -69.42125872 25.85970197 -68.0625 22.3125 C-67.70220703 21.35021484 -67.34191406 20.38792969 -66.97070312 19.39648438 C-66.62072266 18.47802734 -66.27074219 17.55957031 -65.91015625 16.61328125 C-65.59183838 15.77579346 -65.27352051 14.93830566 -64.94555664 14.07543945 C-64 12 -64 12 -62 10 C-58.37 18.91 -54.74 27.82 -51 37 C-49.02 31.72 -47.04 26.44 -45 21 C-44.34 21 -43.68 21 -43 21 C-41.02 26.28 -39.04 31.56 -37 37 C-36.45730469 35.63746094 -35.91460937 34.27492187 -35.35546875 32.87109375 C-34.63285906 31.05987726 -33.91020021 29.24868038 -33.1875 27.4375 C-32.83107422 26.54224609 -32.47464844 25.64699219 -32.10742188 24.72460938 C-30.13582889 19.78658291 -28.12032161 14.87607083 -26 10 C-23.68847059 12.8469174 -22.26271326 15.48043884 -20.9921875 18.9140625 C-20.64542969 19.83960937 -20.29867187 20.76515625 -19.94140625 21.71875 C-19.41353516 23.15734375 -19.41353516 23.15734375 -18.875 24.625 C-18.16480363 26.53413003 -17.45390098 28.44299752 -16.7421875 30.3515625 C-16.4313623 31.19541504 -16.12053711 32.03926758 -15.80029297 32.90869141 C-15.03370523 35.01426206 -15.03370523 35.01426206 -14 37 C-7.07 18.685 -7.07 18.685 0 0 Z " fill="#FEFDFE" transform="translate(95,42)"/>
<path d="M0 0 C0.7734375 -0.00515625 1.546875 -0.0103125 2.34375 -0.015625 C4.5 0.25 4.5 0.25 7.5 2.25 C7.5 3.24 7.5 4.23 7.5 5.25 C6.87351563 5.37117188 6.24703125 5.49234375 5.6015625 5.6171875 C4.78429688 5.78476562 3.96703125 5.95234375 3.125 6.125 C1.90683594 6.36863281 1.90683594 6.36863281 0.6640625 6.6171875 C-1.68673923 7.11658932 -1.68673923 7.11658932 -3.5 9.25 C-3.12111011 13.68751376 -1.77582229 17.59275087 -0.21484375 21.7421875 C0.23310547 22.94101562 0.68105469 24.13984375 1.14257812 25.375 C1.61576723 26.62504474 2.089076 27.8750442 2.5625 29.125 C3.04021196 30.39825061 3.51743034 31.67168652 3.99414062 32.9453125 C5.15792244 36.04873067 6.32668968 39.15017447 7.5 42.25 C7.7266333 41.68079834 7.9532666 41.11159668 8.18676758 40.52514648 C9.2277439 37.91222426 10.27011202 35.29985937 11.3125 32.6875 C11.66892578 31.79224609 12.02535156 30.89699219 12.39257812 29.97460938 C14.36417111 25.03658291 16.37967839 20.12607083 18.5 15.25 C20.81152941 18.0969174 22.23728674 20.73043884 23.5078125 24.1640625 C23.85457031 25.08960937 24.20132813 26.01515625 24.55859375 26.96875 C25.08646484 28.40734375 25.08646484 28.40734375 25.625 29.875 C26.33519637 31.78413003 27.04609902 33.69299752 27.7578125 35.6015625 C28.22405029 36.86734131 28.22405029 36.86734131 28.69970703 38.15869141 C29.46629477 40.26426206 29.46629477 40.26426206 30.5 42.25 C30.77674561 41.46761963 31.05349121 40.68523926 31.33862305 39.87915039 C32.60060417 36.34901755 33.89352061 32.83102268 35.1875 29.3125 C35.84008789 27.46495117 35.84008789 27.46495117 36.50585938 25.58007812 C36.94091797 24.41025391 37.37597656 23.24042969 37.82421875 22.03515625 C38.21697998 20.95113525 38.60974121 19.86711426 39.0144043 18.75024414 C40.5 16.25 40.5 16.25 43.16723633 15.38842773 C44.32195435 15.31990601 44.32195435 15.31990601 45.5 15.25 C45.82076172 22.01028347 44.98040358 26.92487548 42.5078125 33.1875 C42.20181122 33.99364746 41.89580994 34.79979492 41.58053589 35.63037109 C40.93689156 37.31700216 40.28608668 39.00091677 39.62841797 40.68212891 C38.61918396 43.26488397 37.63417933 45.85594001 36.65234375 48.44921875 C36.02222072 50.09167877 35.39075844 51.73362576 34.7578125 53.375 C34.46190216 54.15093506 34.16599182 54.92687012 33.8611145 55.72631836 C31.73246281 61.1337686 31.73246281 61.1337686 29.5 62.25 C26.2 53.67 22.9 45.09 19.5 36.25 C17.12416505 38.62583495 16.49561122 40.54762668 15.3359375 43.6953125 C14.93632813 44.77167969 14.53671875 45.84804688 14.125 46.95703125 C13.50625 48.64892578 13.50625 48.64892578 12.875 50.375 C12.45476563 51.51066406 12.03453125 52.64632812 11.6015625 53.81640625 C10.56278413 56.62582957 9.52916161 59.4370426 8.5 62.25 C5.37168546 60.68584273 5.08337548 58.07613503 3.875 54.875 C3.42898437 53.71226563 2.98296875 52.54953125 2.5234375 51.3515625 C1.5 48.25 1.5 48.25 1.5 45.25 C0.84 45.25 0.18 45.25 -0.5 45.25 C-0.68175781 45.89066406 -0.86351562 46.53132813 -1.05078125 47.19140625 C-2.56270045 52.39395897 -4.25000671 57.32144327 -6.5 62.25 C-8.36176614 59.45735078 -9.46026071 57.03846874 -10.6640625 53.92578125 C-11.06367187 52.89775391 -11.46328125 51.86972656 -11.875 50.81054688 C-12.2875 49.73869141 -12.7 48.66683594 -13.125 47.5625 C-13.54523437 46.47904297 -13.96546875 45.39558594 -14.3984375 44.27929688 C-15.43552018 41.60409496 -16.46923628 38.92764159 -17.5 36.25 C-19.87583495 38.62583495 -20.50438878 40.54762668 -21.6640625 43.6953125 C-22.06367188 44.77167969 -22.46328125 45.84804688 -22.875 46.95703125 C-23.2875 48.08496094 -23.7 49.21289062 -24.125 50.375 C-24.54523437 51.51066406 -24.96546875 52.64632812 -25.3984375 53.81640625 C-26.43721587 56.62582957 -27.47083839 59.4370426 -28.5 62.25 C-31.16299243 60.91850379 -31.25333806 59.78189023 -32.28759766 57.02148438 C-32.62779938 56.12385376 -32.9680011 55.22622314 -33.31851196 54.3013916 C-33.68004364 53.32536987 -34.04157532 52.34934814 -34.4140625 51.34375 C-34.9758168 49.8511969 -34.9758168 49.8511969 -35.54891968 48.32849121 C-36.74758172 45.13810457 -37.93615702 41.94405676 -39.125 38.75 C-39.9342834 36.59482201 -40.74417143 34.43987096 -41.5546875 32.28515625 C-42.32085469 30.24239078 -43.08649756 28.19942855 -43.8515625 26.15625 C-44.21714264 25.18022827 -44.58272278 24.20420654 -44.9593811 23.1986084 C-45.2932785 22.30097778 -45.6271759 21.40334717 -45.97119141 20.47851562 C-46.26716217 19.68433228 -46.56313293 18.89014893 -46.86807251 18.07189941 C-47.5 16.25 -47.5 16.25 -47.5 15.25 C-45.19 15.25 -42.88 15.25 -40.5 15.25 C-37.43021014 21.1179169 -34.98034441 27.01989004 -32.75 33.25 C-31.6775 36.22 -30.605 39.19 -29.5 42.25 C-25.87 33.34 -22.24 24.43 -18.5 15.25 C-16.09193561 17.65806439 -15.36515027 19.746157 -14.1171875 22.9140625 C-13.45009766 24.59628906 -13.45009766 24.59628906 -12.76953125 26.3125 C-12.30933594 27.488125 -11.84914062 28.66375 -11.375 29.875 C-10.90707031 31.05835937 -10.43914063 32.24171875 -9.95703125 33.4609375 C-8.80004177 36.38882924 -7.64791718 39.31854208 -6.5 42.25 C-3.38090315 33.65460326 -5.89731919 27.68263212 -9.41601562 19.76757812 C-11.12248878 15.75550685 -11.97224588 12.60584683 -11.5 8.25 C-8.58321 3.01989379 -6.19390538 -0.0412927 0 0 Z " fill="#193E5B" transform="translate(50.5,17.75)"/>
<path d="M0 0 C31.68 0 63.36 0 96 0 C96 5.61 96 11.22 96 17 C63.99787275 18.07248302 32.01777518 18.11013152 0 18 C0 12.06 0 6.12 0 0 Z " fill="#FEFEFF" transform="translate(0,0)"/>
<path d="M0 0 C15.51 0 31.02 0 47 0 C47 5.28 47 10.56 47 16 C45.68 16.33 44.36 16.66 43 17 C41.54360543 19.55005324 41.54360543 19.55005324 40.4921875 22.75 C40.06292969 23.9153125 39.63367188 25.080625 39.19140625 26.28125 C38.75699219 27.5084375 38.32257813 28.735625 37.875 30 C37.00349442 32.41887264 36.12619599 34.83566866 35.2421875 37.25 C34.8591748 38.32765625 34.47616211 39.4053125 34.08154297 40.515625 C33 43 33 43 31 44 C27.7 35.42 24.4 26.84 21 18 C18.62416505 20.37583495 17.99561122 22.29762668 16.8359375 25.4453125 C16.23652344 27.05986328 16.23652344 27.05986328 15.625 28.70703125 C15.2125 29.83496094 14.8 30.96289062 14.375 32.125 C13.95476563 33.26066406 13.53453125 34.39632812 13.1015625 35.56640625 C12.06278413 38.37582957 11.02916161 41.1870426 10 44 C5.81357132 41.90678566 4.71788883 35.1028557 3.09448242 30.80908203 C2.31881509 28.76662863 1.52251268 26.73307057 0.72460938 24.69921875 C0.22787873 23.39892878 -0.26760469 22.09816153 -0.76171875 20.796875 C-1.21506592 19.61448242 -1.66841309 18.43208984 -2.13549805 17.21386719 C-3.02736289 13.8982759 -3.11703609 12.21312775 -2 9 C0.39763185 6.60236815 1.33273498 6.65719414 4.625 6.375 C5.44226562 6.30023437 6.25953125 6.22546875 7.1015625 6.1484375 C7.72804688 6.09945313 8.35453125 6.05046875 9 6 C8.67 5.01 8.34 4.02 8 3 C6.12612784 2.19787372 6.12612784 2.19787372 3.9375 1.8125 C3.20402344 1.65394531 2.47054687 1.49539062 1.71484375 1.33203125 C1.14894531 1.22246094 0.58304688 1.11289062 0 1 C0 0.67 0 0.34 0 0 Z " fill="#F8FAFC" transform="translate(49,17)"/>
<path d="M0 0 C2.31 0 4.62 0 7 0 C10.06978986 5.8679169 12.51965559 11.76989004 14.75 18 C15.8225 20.97 16.895 23.94 18 27 C21.63 18.09 25.26 9.18 29 0 C31.40806439 2.40806439 32.13484973 4.496157 33.3828125 7.6640625 C33.82753906 8.78554688 34.27226563 9.90703125 34.73046875 11.0625 C35.19066406 12.238125 35.65085938 13.41375 36.125 14.625 C36.59292969 15.80835938 37.06085937 16.99171875 37.54296875 18.2109375 C38.69995823 21.13882924 39.85208282 24.06854208 41 27 C41.99 24.36 42.98 21.72 44 19 C46.71106593 23.0665989 48.48527437 27.22618697 47.62695312 32.13232422 C46.93845917 34.29209983 46.13650052 36.35150207 45.25 38.4375 C44.9715625 39.15615234 44.693125 39.87480469 44.40625 40.61523438 C42.31296119 45.84351941 42.31296119 45.84351941 40 47 C36.7 38.42 33.4 29.84 30 21 C27.62416505 23.37583495 26.99561122 25.29762668 25.8359375 28.4453125 C25.23652344 30.05986328 25.23652344 30.05986328 24.625 31.70703125 C24.2125 32.83496094 23.8 33.96289062 23.375 35.125 C22.95476563 36.26066406 22.53453125 37.39632812 22.1015625 38.56640625 C21.06278413 41.37582957 20.02916161 44.1870426 19 47 C16.33700757 45.66850379 16.24666194 44.53189023 15.21240234 41.77148438 C14.87220062 40.87385376 14.5319989 39.97622314 14.18148804 39.0513916 C13.81995636 38.07536987 13.45842468 37.09934814 13.0859375 36.09375 C12.5241832 34.6011969 12.5241832 34.6011969 11.95108032 33.07849121 C10.75241828 29.88810457 9.56384298 26.69405676 8.375 23.5 C7.5657166 21.34482201 6.75582857 19.18987096 5.9453125 17.03515625 C5.17914531 14.99239078 4.41350244 12.94942855 3.6484375 10.90625 C3.28285736 9.93022827 2.91727722 8.95420654 2.5406189 7.9486084 C2.2067215 7.05097778 1.8728241 6.15334717 1.52880859 5.22851562 C1.23283783 4.43433228 0.93686707 3.64014893 0.63192749 2.82189941 C0 1 0 1 0 0 Z " fill="#E61580" transform="translate(3,33)"/>
<path d="M0 0 C2.29474347 2.83444297 3.74822032 5.47533428 5.04296875 8.87890625 C5.39423828 9.79994141 5.74550781 10.72097656 6.10742188 11.66992188 C6.46384766 12.62447266 6.82027344 13.57902344 7.1875 14.5625 C7.55552734 15.52091797 7.92355469 16.47933594 8.30273438 17.46679688 C11 24.60779511 11 24.60779511 11 28 C4.07 28 -2.86 28 -10 28 C-9.26567253 24.32836267 -8.50716236 21.41789183 -7.1875 17.98828125 C-6.83429687 17.06595703 -6.48109375 16.14363281 -6.1171875 15.19335938 C-5.74851562 14.24267578 -5.37984375 13.29199219 -5 12.3125 C-4.63132812 11.35021484 -4.26265625 10.38792969 -3.8828125 9.39648438 C-1.16636588 2.33273176 -1.16636588 2.33273176 0 0 Z " fill="#F3F6F8" transform="translate(69,52)"/>
<path d="M0 0 C0.33 0 0.66 0 1 0 C1 12.54 1 25.08 1 38 C-3.95 38 -8.9 38 -14 38 C-9.6100288 25.21704434 -4.99095164 12.56081447 0 0 Z " fill="#F5F8F9" transform="translate(95,42)"/>
<path d="M0 0 C4.83308218 4.67717631 4.83308218 4.67717631 5.3125 8.4765625 C4.86472672 13.52520626 2.9594737 17.73448965 1 22.375 C0.6184375 23.30183594 0.236875 24.22867188 -0.15625 25.18359375 C-1.0948815 27.45977514 -2.0429698 29.73150754 -3 32 C-5.51195718 28.23206422 -7.02314332 24.32091323 -8.6875 20.125 C-9.02072266 19.32191406 -9.35394531 18.51882812 -9.69726562 17.69140625 C-12.68290887 10.15591581 -12.68290887 10.15591581 -11 6 C-8.60236815 3.60236815 -7.66726502 3.65719414 -4.375 3.375 C-3.55773438 3.30023437 -2.74046875 3.22546875 -1.8984375 3.1484375 C-1.27195312 3.09945313 -0.64546875 3.05046875 0 3 C0 2.01 0 1.02 0 0 Z " fill="#E1197F" transform="translate(58,20)"/>
<path d="M0 0 C0.66 0 1.32 0 2 0 C3.98 5.61 5.96 11.22 8 17 C3.38 17 -1.24 17 -6 17 C-4.02 11.39 -2.04 5.78 0 0 Z " fill="#F3F0F5" transform="translate(50,63)"/>
<path d="M0 0 C3.0625 0.1875 3.0625 0.1875 5.0625 2.1875 C4.73488912 7.64768129 3.08594607 12.17287277 1.0625 17.1875 C0.4025 17.1875 -0.2575 17.1875 -0.9375 17.1875 C-1.64054222 15.46459395 -2.32433491 13.73382534 -3 12 C-3.38285156 11.03707031 -3.76570313 10.07414062 -4.16015625 9.08203125 C-4.9987482 5.95943511 -4.88819469 4.24602062 -3.9375 1.1875 C-2.9375 0.1875 -2.9375 0.1875 0 0 Z " fill="#F5F4F7" transform="translate(50.9375,24.8125)"/>
<path d="M0 0 C1.37562854 1.28965176 2.70766393 2.62689293 4 4 C4 4.66 4 5.32 4 6 C2.02 6.66 0.04 7.32 -2 8 C-2.66 7.34 -3.32 6.68 -4 6 C-6.57061311 5.35232207 -6.57061311 5.35232207 -9 5 C-9 4.67 -9 4.34 -9 4 C-4.545 3.505 -4.545 3.505 0 3 C0 2.01 0 1.02 0 0 Z " fill="#8A4977" transform="translate(58,20)"/>
</svg>
